<svg xmlns="http://www.w3.org/2000/svg" width="100" height="59" viewBox="0 0 100 59" fill="none">
<path d="M99.3941 57.7601C100.517 50.614 100.076 43.3094 98.1008 36.3504C96.1261 29.3914 92.6649 22.9438 87.956 17.4525C83.2472 11.9612 77.403 7.55705 70.8266 4.54396C64.2503 1.53087 57.0984 -0.0193892 49.8647 0.000183017C42.631 0.0197552 35.4877 1.60869 28.9277 4.65733C22.3677 7.70596 16.5474 12.1417 11.8684 17.6584C7.18936 23.1751 3.76308 29.6413 1.82602 36.6109C-0.111047 43.5805 -0.512768 50.8874 0.648582 58.0273L38.1414 51.9289C37.8623 50.2132 37.9588 48.4575 38.4243 46.7827C38.8897 45.108 39.713 43.5542 40.8374 42.2286C41.9617 40.903 43.3603 39.8372 44.9365 39.1046C46.5128 38.3721 48.2293 37.9903 49.9675 37.9856C51.7057 37.9809 53.4242 38.3534 55.0044 39.0774C56.5847 39.8014 57.989 40.8597 59.1204 42.1792C60.2519 43.4987 61.0836 45.048 61.5581 46.7201C62.0326 48.3923 62.1387 50.1475 61.8689 51.8647L99.3941 57.7601Z" fill="#E8A302"/>
</svg>
